{
  "accessors": [
    {
      "name": "Box3921_1_0_positions",
      "componentType": 5126,
      "count": 500,
      "min": [
        -1.1886999607086182,
        0.4465999901294708,
        -5.2052998542785645
      ],
      "max": [
        1.2071000337600708,
        1.5233999490737915,
        2.908099889755249
      ],
      "type": "VEC3",
      "bufferView": 0,
      "byteOffset": 0
    },
    {
      "name": "Box3921_1_0_normals",
      "componentType": 5126,
      "count": 500,
      "min": [
        -1,
        -1,
        -1
      ],
      "max": [
        1,
        1,
        1
      ],
      "type": "VEC3",
      "bufferView": 1,
      "byteOffset": 0
    },
    {
      "name": "Box3921_1_0_texcoords",
      "componentType": 5126,
      "count": 500,
      "min": [
        -0.2838999927043915,
        0
      ],
      "max": [
        1.2839000225067139,
        1
      ],
      "type": "VEC2",
      "bufferView": 2,
      "byteOffset": 0
    },
    {
      "name": "Box3921_1_0_indices",
      "componentType": 5123,
      "count": 750,
      "min": [
        0
      ],
      "max": [
        499
      ],
      "type": "SCALAR",
      "bufferView": 3,
      "byteOffset": 0
    },
    {
      "name": "Box3921_1_1_positions",
      "componentType": 5126,
      "count": 3122,
      "min": [
        -1.416700005531311,
        0,
        -5.223599910736084
      ],
      "max": [
        1.416700005531311,
        2.7472000122070312,
        5.054800033569336
      ],
      "type": "VEC3",
      "bufferView": 0,
      "byteOffset": 6000
    },
    {
      "name": "Box3921_1_1_normals",
      "componentType": 5126,
      "count": 3122,
      "min": [
        -1,
        -1,
        -1
      ],
      "max": [
        1,
        1,
        1
      ],
      "type": "VEC3",
      "bufferView": 1,
      "byteOffset": 6000
    },
    {
      "name": "Box3921_1_1_texcoords",
      "componentType": 5126,
      "count": 3122,
      "min": [
        -10.803199768066406,
        -0.06920000165700912
      ],
      "max": [
        10.595999717712402,
        38.538299560546875
      ],
      "type": "VEC2",
      "bufferView": 2,
      "byteOffset": 4000
    },
    {
      "name": "Box3921_1_1_indices",
      "componentType": 5123,
      "count": 8568,
      "min": [
        0
      ],
      "max": [
        3121
      ],
      "type": "SCALAR",
      "bufferView": 3,
      "byteOffset": 1500
    },
    {
      "name": "Box3921_1_2_positions",
      "componentType": 5126,
      "count": 16,
      "min": [
        -1.220900058746338,
        1.5616999864578247,
        -5.257299900054932
      ],
      "max": [
        1.231600046157837,
        4.048500061035156,
        2.5820000171661377
      ],
      "type": "VEC3",
      "bufferView": 0,
      "byteOffset": 43464
    },
    {
      "name": "Box3921_1_2_normals",
      "componentType": 5126,
      "count": 16,
      "min": [
        -1,
        0,
        0
      ],
      "max": [
        1,
        1,
        1
      ],
      "type": "VEC3",
      "bufferView": 1,
      "byteOffset": 43464
    },
    {
      "name": "Box3921_1_2_texcoords",
      "componentType": 5126,
      "count": 16,
      "min": [
        -0.2838999927043915,
        0.2547999918460846
      ],
      "max": [
        1.2839000225067139,
        0.7732999920845032
      ],
      "type": "VEC2",
      "bufferView": 2,
      "byteOffset": 28976
    },
    {
      "name": "Box3921_1_2_indices",
      "componentType": 5123,
      "count": 24,
      "min": [
        0
      ],
      "max": [
        15
      ],
      "type": "SCALAR",
      "bufferView": 3,
      "byteOffset": 18636
    },
    {
      "name": "Box3921_1_3_positions",
      "componentType": 5126,
      "count": 317,
      "min": [
        -1.3960000276565552,
        0.8360000252723694,
        -5.2967000007629395
      ],
      "max": [
        1.3960000276565552,
        4.2606000900268555,
        4.962800025939941
      ],
      "type": "VEC3",
      "bufferView": 0,
      "byteOffset": 43656
    },
    {
      "name": "Box3921_1_3_normals",
      "componentType": 5126,
      "count": 317,
      "min": [
        -1,
        -1,
        -1
      ],
      "max": [
        1,
        1,
        1
      ],
      "type": "VEC3",
      "bufferView": 1,
      "byteOffset": 43656
    },
    {
      "name": "Box3921_1_3_texcoords",
      "componentType": 5126,
      "count": 317,
      "min": [
        -12.45580005645752,
        -0.094200000166893
      ],
      "max": [
        5.047599792480469,
        1.0911999940872192
      ],
      "type": "VEC2",
      "bufferView": 2,
      "byteOffset": 29104
    },
    {
      "name": "Box3921_1_3_indices",
      "componentType": 5123,
      "count": 678,
      "min": [
        0
      ],
      "max": [
        316
      ],
      "type": "SCALAR",
      "bufferView": 3,
      "byteOffset": 18684
    },
    {
      "name": "Box3921_1_4_positions",
      "componentType": 5126,
      "count": 4,
      "min": [
        -1.2208000421524048,
        1.5616999864578247,
        -5.257299900054932
      ],
      "max": [
        1.231600046157837,
        4.048500061035156,
        -5.257299900054932
      ],
      "type": "VEC3",
      "bufferView": 0,
      "byteOffset": 47460
    },
    {
      "name": "Box3921_1_4_normals",
      "componentType": 5126,
      "count": 4,
      "min": [
        0,
        0,
        -1
      ],
      "max": [
        0,
        0,
        -1
      ],
      "type": "VEC3",
      "bufferView": 1,
      "byteOffset": 47460
    },
    {
      "name": "Box3921_1_4_texcoords",
      "componentType": 5126,
      "count": 4,
      "min": [
        0.0005000000237487257,
        0.0005000000237487257
      ],
      "max": [
        0.9994999766349792,
        0.9994999766349792
      ],
      "type": "VEC2",
      "bufferView": 2,
      "byteOffset": 31640
    },
    {
      "name": "Box3921_1_4_indices",
      "componentType": 5123,
      "count": 6,
      "min": [
        0
      ],
      "max": [
        3
      ],
      "type": "SCALAR",
      "bufferView": 3,
      "byteOffset": 20040
    },
    {
      "name": "Box3921_1_5_positions",
      "componentType": 5126,
      "count": 648,
      "min": [
        -1.0906000137329102,
        0.022099999710917473,
        -3.49180006980896
      ],
      "max": [
        1.1053999662399292,
        1.0641000270843506,
        4.259900093078613
      ],
      "type": "VEC3",
      "bufferView": 0,
      "byteOffset": 47508
    },
    {
      "name": "Box3921_1_5_normals",
      "componentType": 5126,
      "count": 648,
      "min": [
        -0.9950475096702576,
        -0.584692656993866,
        -0.5939832925796509
      ],
      "max": [
        0.9950475096702576,
        0.5854173302650452,
        0.5939832925796509
      ],
      "type": "VEC3",
      "bufferView": 1,
      "byteOffset": 47508
    },
    {
      "name": "Box3921_1_5_texcoords",
      "componentType": 5126,
      "count": 648,
      "min": [
        0.039500001817941666,
        0.0364999994635582
      ],
      "max": [
        0.9605000019073486,
        0.9667999744415283
      ],
      "type": "VEC2",
      "bufferView": 2,
      "byteOffset": 31672
    },
    {
      "name": "Box3921_1_5_indices",
      "componentType": 5123,
      "count": 1872,
      "min": [
        0
      ],
      "max": [
        647
      ],
      "type": "SCALAR",
      "bufferView": 3,
      "byteOffset": 20052
    },
    {
      "name": "Box3921_1_6_positions",
      "componentType": 5126,
      "count": 777,
      "min": [
        -1.1801999807357788,
        0.42010000348091125,
        2.6414999961853027
      ],
      "max": [
        1.194000005722046,
        4.041399955749512,
        5.2967000007629395
      ],
      "type": "VEC3",
      "bufferView": 0,
      "byteOffset": 55284
    },
    {
      "name": "Box3921_1_6_normals",
      "componentType": 5126,
      "count": 777,
      "min": [
        -1,
        -1,
        -1
      ],
      "max": [
        1,
        1,
        1
      ],
      "type": "VEC3",
      "bufferView": 1,
      "byteOffset": 55284
    },
    {
      "name": "Box3921_1_6_texcoords",
      "componentType": 5126,
      "count": 777,
      "min": [
        0.0035000001080334187,
        0.006300000008195639
      ],
      "max": [
        0.9965000152587891,
        0.9948999881744385
      ],
      "type": "VEC2",
      "bufferView": 2,
      "byteOffset": 36856
    },
    {
      "name": "Box3921_1_6_indices",
      "componentType": 5123,
      "count": 2646,
      "min": [
        0
      ],
      "max": [
        776
      ],
      "type": "SCALAR",
      "bufferView": 3,
      "byteOffset": 23796
    }
  ],
  "asset": {
    "generator": "obj2gltf",
    "version": "2.0"
  },
  "buffers": [
    {
      "name": "Truck04-01",
      "byteLength": 559168,
      "uri": "data:application/octet-stream;base64,"
    }
  ],
  "bufferViews": [
    {
      "name": "bufferView_0",
      "buffer": 0,
      "byteLength": 64608,
      "byteOffset": 0,
      "byteStride": 12,
      "target": 34962
    },
    {
      "name": "bufferView_1",
      "buffer": 0,
      "byteLength": 64608,
      "byteOffset": 64608,
      "byteStride": 12,
      "target": 34962
    },
    {
      "name": "bufferView_2",
      "buffer": 0,
      "byteLength": 43072,
      "byteOffset": 129216,
      "byteStride": 8,
      "target": 34962
    },
    {
      "name": "bufferView_3",
      "buffer": 0,
      "byteLength": 29088,
      "byteOffset": 172288,
      "target": 34963
    },
    {
      "buffer": 0,
      "byteOffset": 201376,
      "byteLength": 11400
    },
    {
      "buffer": 0,
      "byteOffset": 212776,
      "byteLength": 10785
    },
    {
      "buffer": 0,
      "byteOffset": 223561,
      "byteLength": 56998
    },
    {
      "buffer": 0,
      "byteOffset": 280559,
      "byteLength": 11280
    },
    {
      "buffer": 0,
      "byteOffset": 291839,
      "byteLength": 44691
    },
    {
      "buffer": 0,
      "byteOffset": 336530,
      "byteLength": 85113
    },
    {
      "buffer": 0,
      "byteOffset": 421643,
      "byteLength": 137523
    }
  ],
  "images": [
    {
      "name": "WuLiuChe_White",
      "mimeType": "image/jpeg",
      "bufferView": 4
    },
    {
      "name": "WuLiuChe_Black",
      "mimeType": "image/jpeg",
      "bufferView": 5
    },
    {
      "name": "WuLiuChe_Xiang",
      "mimeType": "image/jpeg",
      "bufferView": 6
    },
    {
      "name": "WuLiuChe_White002",
      "mimeType": "image/jpeg",
      "bufferView": 7
    },
    {
      "name": "WuLiuChe_hou",
      "mimeType": "image/jpeg",
      "bufferView": 8
    },
    {
      "name": "WuLiuChe_CL",
      "mimeType": "image/jpeg",
      "bufferView": 9
    },
    {
      "name": "WuLiuChe_0129",
      "mimeType": "image/jpeg",
      "bufferView": 10
    }
  ],
  "materials": [
    {
      "name": "Standard_20",
      "pbrMetallicRoughness": {
        "baseColorTexture": {
          "index": 0
        },
        "baseColorFactor": [
          1,
          1,
          1,
          1
        ],
        "metallicFactor": 0,
        "roughnessFactor": 0.99
      },
      "emissiveFactor": [
        0,
        0,
        0
      ],
      "alphaMode": "OPAQUE",
      "doubleSided": false
    },
    {
      "name": "Standard_21",
      "pbrMetallicRoughness": {
        "baseColorTexture": {
          "index": 1
        },
        "baseColorFactor": [
          1,
          1,
          1,
          1
        ],
        "metallicFactor": 0,
        "roughnessFactor": 0.99
      },
      "emissiveFactor": [
        0,
        0,
        0
      ],
      "alphaMode": "OPAQUE",
      "doubleSided": false
    },
    {
      "name": "Standard_23",
      "pbrMetallicRoughness": {
        "baseColorTexture": {
          "index": 2
        },
        "baseColorFactor": [
          1,
          1,
          1,
          1
        ],
        "metallicFactor": 0,
        "roughnessFactor": 0.99
      },
      "emissiveFactor": [
        0,
        0,
        0
      ],
      "alphaMode": "OPAQUE",
      "doubleSided": false
    },
    {
      "name": "Material__1269",
      "pbrMetallicRoughness": {
        "baseColorTexture": {
          "index": 3
        },
        "baseColorFactor": [
          1,
          1,
          1,
          1
        ],
        "metallicFactor": 0,
        "roughnessFactor": 0.99
      },
      "emissiveFactor": [
        0,
        0,
        0
      ],
      "alphaMode": "OPAQUE",
      "doubleSided": false
    },
    {
      "name": "Standard_24",
      "pbrMetallicRoughness": {
        "baseColorTexture": {
          "index": 4
        },
        "baseColorFactor": [
          1,
          1,
          1,
          1
        ],
        "metallicFactor": 0,
        "roughnessFactor": 0.99
      },
      "emissiveFactor": [
        0,
        0,
        0
      ],
      "alphaMode": "OPAQUE",
      "doubleSided": false
    },
    {
      "name": "Material__1454",
      "pbrMetallicRoughness": {
        "baseColorTexture": {
          "index": 5
        },
        "baseColorFactor": [
          1,
          1,
          1,
          1
        ],
        "metallicFactor": 0,
        "roughnessFactor": 0.99
      },
      "emissiveFactor": [
        0,
        0,
        0
      ],
      "alphaMode": "OPAQUE",
      "doubleSided": false
    },
    {
      "name": "Standard_19",
      "pbrMetallicRoughness": {
        "baseColorTexture": {
          "index": 6
        },
        "baseColorFactor": [
          1,
          1,
          1,
          1
        ],
        "metallicFactor": 0,
        "roughnessFactor": 0.99
      },
      "emissiveFactor": [
        0,
        0,
        0
      ],
      "alphaMode": "OPAQUE",
      "doubleSided": false
    }
  ],
  "meshes": [
    {
      "name": "Box3921_1",
      "primitives": [
        {
          "attributes": {
            "POSITION": 0,
            "NORMAL": 1,
            "TEXCOORD_0": 2
          },
          "indices": 3,
          "material": 0,
          "mode": 4
        },
        {
          "attributes": {
            "POSITION": 4,
            "NORMAL": 5,
            "TEXCOORD_0": 6
          },
          "indices": 7,
          "material": 1,
          "mode": 4
        },
        {
          "attributes": {
            "POSITION": 8,
            "NORMAL": 9,
            "TEXCOORD_0": 10
          },
          "indices": 11,
          "material": 2,
          "mode": 4
        },
        {
          "attributes": {
            "POSITION": 12,
            "NORMAL": 13,
            "TEXCOORD_0": 14
          },
          "indices": 15,
          "material": 3,
          "mode": 4
        },
        {
          "attributes": {
            "POSITION": 16,
            "NORMAL": 17,
            "TEXCOORD_0": 18
          },
          "indices": 19,
          "material": 4,
          "mode": 4
        },
        {
          "attributes": {
            "POSITION": 20,
            "NORMAL": 21,
            "TEXCOORD_0": 22
          },
          "indices": 23,
          "material": 5,
          "mode": 4
        },
        {
          "attributes": {
            "POSITION": 24,
            "NORMAL": 25,
            "TEXCOORD_0": 26
          },
          "indices": 27,
          "material": 6,
          "mode": 4
        }
      ]
    }
  ],
  "nodes": [
    {
      "name": "Box3921",
      "mesh": 0
    }
  ],
  "samplers": [
    {
      "magFilter": 9729,
      "minFilter": 9986,
      "wrapS": 10497,
      "wrapT": 10497
    }
  ],
  "scene": 0,
  "scenes": [
    {
      "nodes": [
        0
      ]
    }
  ],
  "textures": [
    {
      "name": "WuLiuChe_White",
      "sampler": 0,
      "source": 0
    },
    {
      "name": "WuLiuChe_Black",
      "sampler": 0,
      "source": 1
    },
    {
      "name": "WuLiuChe_Xiang",
      "sampler": 0,
      "source": 2
    },
    {
      "name": "WuLiuChe_White002",
      "sampler": 0,
      "source": 3
    },
    {
      "name": "WuLiuChe_hou",
      "sampler": 0,
      "source": 4
    },
    {
      "name": "WuLiuChe_CL",
      "sampler": 0,
      "source": 5
    },
    {
      "name": "WuLiuChe_0129",
      "sampler": 0,
      "source": 6
    }
  ]
}
