{
  "accessors": [
    {
      "name": "17lorry_1_0_positions",
      "componentType": 5126,
      "count": 1392,
      "min": [
        -1.4140000343322754,
        0.002099999925121665,
        -3.724400043487549
      ],
      "max": [
        1.4140000343322754,
        3.4707999229431152,
        3.724400043487549
      ],
      "type": "VEC3",
      "bufferView": 0,
      "byteOffset": 0
    },
    {
      "name": "17lorry_1_0_normals",
      "componentType": 5126,
      "count": 1392,
      "min": [
        -1,
        -1,
        -1
      ],
      "max": [
        1,
        1,
        1
      ],
      "type": "VEC3",
      "bufferView": 1,
      "byteOffset": 0
    },
    {
      "name": "17lorry_1_0_texcoords",
      "componentType": 5126,
      "count": 1392,
      "min": [
        0.0027000000700354576,
        0.0007999999797903001
      ],
      "max": [
        0.9994999766349792,
        0.998199999332428
      ],
      "type": "VEC2",
      "bufferView": 2,
      "byteOffset": 0
    },
    {
      "name": "17lorry_1_0_indices",
      "componentType": 5123,
      "count": 3450,
      "min": [
        0
      ],
      "max": [
        1391
      ],
      "type": "SCALAR",
      "bufferView": 3,
      "byteOffset": 0
    }
  ],
  "asset": {
    "generator": "obj2gltf",
    "version": "2.0"
  },
  "buffers": [
    {
      "name": "Truck01",
      "byteLength": 604776,
      "uri": "data:application/octet-stream;base64,"
    }
  ],
  "bufferViews": [
    {
      "name": "bufferView_0",
      "buffer": 0,
      "byteLength": 16704,
      "byteOffset": 0,
      "byteStride": 12,
      "target": 34962
    },
    {
      "name": "bufferView_1",
      "buffer": 0,
      "byteLength": 16704,
      "byteOffset": 16704,
      "byteStride": 12,
      "target": 34962
    },
    {
      "name": "bufferView_2",
      "buffer": 0,
      "byteLength": 11136,
      "byteOffset": 33408,
      "byteStride": 8,
      "target": 34962
    },
    {
      "name": "bufferView_3",
      "buffer": 0,
      "byteLength": 6900,
      "byteOffset": 44544,
      "target": 34963
    },
    {
      "buffer": 0,
      "byteOffset": 51444,
      "byteLength": 553332
    }
  ],
  "images": [
    {
      "name": "Truck_0211",
      "mimeType": "image/jpeg",
      "bufferView": 4
    }
  ],
  "materials": [
    {
      "name": "19___Default",
      "pbrMetallicRoughness": {
        "baseColorTexture": {
          "index": 0
        },
        "baseColorFactor": [
          1,
          1,
          1,
          1
        ],
        "metallicFactor": 0,
        "roughnessFactor": 0.99
      },
      "emissiveFactor": [
        0,
        0,
        0
      ],
      "alphaMode": "OPAQUE",
      "doubleSided": false
    }
  ],
  "meshes": [
    {
      "name": "17lorry_1",
      "primitives": [
        {
          "attributes": {
            "POSITION": 0,
            "NORMAL": 1,
            "TEXCOORD_0": 2
          },
          "indices": 3,
          "material": 0,
          "mode": 4
        }
      ]
    }
  ],
  "nodes": [
    {
      "name": "17lorry",
      "mesh": 0
    }
  ],
  "samplers": [
    {
      "magFilter": 9729,
      "minFilter": 9986,
      "wrapS": 10497,
      "wrapT": 10497
    }
  ],
  "scene": 0,
  "scenes": [
    {
      "nodes": [
        0
      ]
    }
  ],
  "textures": [
    {
      "name": "Truck_0211",
      "sampler": 0,
      "source": 0
    }
  ]
}
